<svg id="Layer_1" data-name="Layer 1" xmlns="http://www.w3.org/2000/svg" viewBox="0 0 48 48"><defs><style>.cls-1{fill:#0d3b8d;}.cls-2{fill:#1761b2;}.cls-3{fill:#00286f;}.cls-4{fill:#ff3b65;}.cls-5{fill:#d82b50;}.cls-6{fill:#ffcdb4;}.cls-7{fill:#f6a28d;}.cls-8{fill:#afb4c2;}.cls-9{fill:#8c94af;}.cls-10{fill:#eff3f9;}.cls-11{fill:#cfe0f3;}.cls-12{fill:#08105e;}</style></defs><path class="cls-1" d="M11.892,28.659l-.231-3.535a6.776,6.776,0,0,1,1.156-4.266,6.768,6.768,0,0,0,1.052-5.028l-.554-3.1a5.191,5.191,0,0,1-.113-1.523,10.815,10.815,0,0,1,21.6,0,5.191,5.191,0,0,1-.113,1.523l-.554,3.1a6.768,6.768,0,0,0,1.052,5.028,6.776,6.776,0,0,1,1.156,4.266l-.231,3.535Z" id="id_118"></path><path class="cls-2" d="M24,4.341A13.845,13.845,0,0,1,34.454,9.115a10.791,10.791,0,0,0-20.908,0A13.845,13.845,0,0,1,24,4.341Z" id="id_119"></path><path class="cls-3" d="M34.055,17.551a12.479,12.479,0,0,1-20.162-1.46,6.437,6.437,0,0,1-1.076,4.767,6.776,6.776,0,0,0-1.156,4.266l.231,3.535H36.108l.231-3.535a6.776,6.776,0,0,0-1.156-4.266A6.686,6.686,0,0,1,34.055,17.551Z" id="id_120"></path><path class="cls-4" d="M20,25.51l-5.51,1.58a5.908,5.908,0,0,0-3.42,2.64,5.985,5.985,0,0,0-.8,2.49l-.536,6.449A4,4,0,0,0,13.721,43H34.279a4,4,0,0,0,3.987-4.331L37.73,32.22a5.985,5.985,0,0,0-.8-2.49,5.908,5.908,0,0,0-3.42-2.64L28,25.51Z" id="id_121" style="fill: rgb(14, 170, 181);"></path><path class="cls-5" d="M18.721,39a4,4,0,0,1-3.987-4.331l.536-6.449a5.97,5.97,0,0,1,.322-1.446l-1.1.316a5.908,5.908,0,0,0-3.42,2.64,5.985,5.985,0,0,0-.8,2.49l-.536,6.449A4,4,0,0,0,13.721,43H34.279a3.986,3.986,0,0,0,3.979-4Z" id="id_122" style="fill: rgb(14, 173, 184);"></path><path class="cls-6" d="M20,19v7a4,4,0,0,0,4,4h0a4,4,0,0,0,4-4V19Z" id="id_123"></path><path class="cls-7" d="M20,25.763a7.062,7.062,0,0,0,8-.01V19H20Z" id="id_124"></path><path class="cls-6" d="M31.3,12.845S31.039,15.78,31,16.761C30.851,20.832,28.069,24,23.994,24h0c-4.074,0-6.857-3.168-7.009-7.239C16.95,15.819,16.7,13,16.7,13a.875.875,0,0,1,.828-.94c1.873-.094,6.188-.687,8.213-4.063a8.223,8.223,0,0,0,4.891,3.931A.878.878,0,0,1,31.3,12.845Z" id="id_125"></path><path class="cls-7" d="M26.494,21.5c-4.074,0-6.857-3.168-7.009-7.239-.018-.5-.1-1.54-.167-2.4a14.825,14.825,0,0,1-1.784.2A.875.875,0,0,0,16.7,13s.245,2.816.28,3.758C17.137,20.832,19.92,24,23.994,24a6.68,6.68,0,0,0,5.918-3.37A6.883,6.883,0,0,1,26.494,21.5Z" id="id_126"></path><path class="cls-8" d="M28,31H7a2,2,0,0,0-2,2.125l.75,12A2,2,0,0,0,7.75,47h19.5a2,2,0,0,0,2-1.875l.75-12A2,2,0,0,0,28,31Z" id="id_127" style="fill: rgb(11, 168, 179);"></path><path class="cls-9" d="M13.629,43a4,4,0,0,1-3.992-3.751L9.121,31H7a2,2,0,0,0-2,2.125l.75,12A2,2,0,0,0,7.75,47h19.5a2,2,0,0,0,2-1.875L29.379,43Z" id="id_128" style="fill: rgb(13, 168, 179);"></path><path class="cls-10" d="M36,38h6a1,1,0,0,1,1,1v5a3,3,0,0,1-3,3H38a3,3,0,0,1-3-3V39A1,1,0,0,1,36,38Z" id="id_129" style="fill: rgb(15, 177, 189);"></path><path class="cls-11" d="M38,42V38H36a1,1,0,0,0-1,1v5a3,3,0,0,0,3,3h2a3,3,0,0,0,3-3H40A2,2,0,0,1,38,42Z" id="id_130" style="fill: rgb(13, 168, 179);"></path><path class="cls-12" d="M24.818,19.269A1.3,1.3,0,0,1,24,19.5a1.314,1.314,0,0,1-.815-.229,1,1,0,0,0-1.392,1.436,3.468,3.468,0,0,0,4.414,0,.982.982,0,0,0,.012-1.371A1.02,1.02,0,0,0,24.818,19.269Z" id="id_131"></path><path class="cls-12" d="M22,15V14a1,1,0,0,0-2,0v1a1,1,0,0,0,2,0Z" id="id_132"></path><path class="cls-12" d="M27,13a1,1,0,0,0-1,1v1a1,1,0,0,0,2,0V14A1,1,0,0,0,27,13Z" id="id_133"></path><path class="cls-12" d="M42,37H39.13l-.4-4.87a7.031,7.031,0,0,0-.94-2.914,6.942,6.942,0,0,0-.653-.905l.2-3.125a7.741,7.741,0,0,0-1.329-4.893,5.788,5.788,0,0,1-.894-4.287l.55-3.078a6.042,6.042,0,0,0,.131-1.789,11.815,11.815,0,0,0-23.59-.025,6.034,6.034,0,0,0,.124,1.791l.556,3.107a5.784,5.784,0,0,1-.895,4.28,7.749,7.749,0,0,0-1.329,4.9l.205,3.123a7.147,7.147,0,0,0-.663.918,7.452,7.452,0,0,0-.383.77H7a3,3,0,0,0-2.994,3.188l.75,12A3,3,0,0,0,7.75,48h19.5a3,3,0,0,0,2.994-2.812L30.318,44H34a4,4,0,0,0,4,4h2a4,4,0,0,0,4-4V39A2,2,0,0,0,42,37ZM13.642,21.422a7.793,7.793,0,0,0,1.212-5.769l-.56-3.124a4.2,4.2,0,0,1-.094-1.256,9.815,9.815,0,0,1,19.6.025,4.224,4.224,0,0,1-.1,1.254l-.554,3.1a7.795,7.795,0,0,0,1.211,5.775,5.752,5.752,0,0,1,.984,3.637l-.11,1.68a6.822,6.822,0,0,0-1.447-.61L29,24.756V23.234A8.63,8.63,0,0,0,32,16.8c.035-.944.287-3.836.29-3.865v-.014a1.877,1.877,0,0,0-1.407-1.956,7.276,7.276,0,0,1-4.245-3.409A1,1,0,0,0,25.784,7a.979.979,0,0,0-.895.485c-1.79,2.984-5.776,3.5-7.407,3.579a1.877,1.877,0,0,0-1.774,2.026c0,.028.244,2.8.278,3.708A8.628,8.628,0,0,0,19,23.243v1.513l-4.786,1.373a6.788,6.788,0,0,0-1.446.611l-.11-1.677A5.757,5.757,0,0,1,13.642,21.422ZM24,29a3,3,0,0,1-3-3V24.428a8.127,8.127,0,0,0,6,0V26A3,3,0,0,1,24,29Zm-.006-6c-3.4,0-5.871-2.581-6.01-6.276-.031-.846-.221-3.083-.272-3.669,1.781-.106,5.577-.654,7.987-3.321a8.863,8.863,0,0,0,4.591,3.14c-.049.563-.254,2.956-.286,3.849C29.865,20.419,27.4,23,23.994,23Zm-9.228,5.051,4.316-1.238A4.98,4.98,0,0,0,21.031,30H12.108A4.858,4.858,0,0,1,14.766,28.051ZM27.25,46H7.75a1,1,0,0,1-1-.937l-.75-12A1,1,0,0,1,7,32H28a1,1,0,0,1,1,1.063l-.75,12A1,1,0,0,1,27.25,46Zm3.193-4,.551-8.812A3,3,0,0,0,28,30H26.969a4.984,4.984,0,0,0,1.949-3.187l4.315,1.238a4.873,4.873,0,0,1,2.834,2.186,5.011,5.011,0,0,1,.667,2.066l.39,4.7H36a2,2,0,0,0-2,2v3ZM42,44a2,2,0,0,1-2,2H38a2,2,0,0,1-2-2V39h6Z" id="id_134"></path></svg>